<?xml version="1.0" encoding="utf-8"?>
<!-- Generator: Adobe Illustrator 18.1.1, SVG Export Plug-In . SVG Version: 6.00 Build 0)  -->
<svg version="1.1" id="Layer_1" xmlns="http://www.w3.org/2000/svg" xmlns:xlink="http://www.w3.org/1999/xlink" x="0px" y="0px"
	 viewBox="0 0 32 32" enable-background="new 0 0 32 32" xml:space="preserve">
<g>
	<path fill="#FFFFFF" d="M31.5,16c0,4.3,0.5,16,0.5,16s-11.7-0.5-16-0.5C7.4,31.5,0.5,24.6,0.5,16S7.4,0.5,16,0.5S31.5,7.4,31.5,16z
		"/>
	<g>
		<circle fill="#0D47A1" cx="16" cy="16" r="11.4"/>
		<g>
			<path fill="#FFFFFF" d="M12.7,8.1V7.6c0.9-0.2,2.1-0.3,3.5-0.3c0.6,0,1,0.1,1.3,0.3c0.2,0.2,0.4,0.5,0.4,0.9
				c0,0.6-0.3,2.2-0.8,4.9c-0.6,2.9-0.9,5-1.1,6.3h-0.4c-0.5-2.7-0.8-5.6-1.1-8.6c-0.1-1.5-0.3-2.4-0.4-2.6C13.9,8.2,13.6,8,13.2,8
				C13.1,8,12.9,8.1,12.7,8.1z M15.9,21.5c0.6,0,1.1,0.2,1.5,0.6S18,23,18,23.6s-0.2,1.1-0.6,1.5s-0.9,0.6-1.5,0.6s-1.1-0.2-1.5-0.6
				s-0.6-0.9-0.6-1.5s0.2-1.1,0.6-1.5S15.3,21.5,15.9,21.5z"/>
		</g>
	</g>
</g>
</svg>
